# xmcd CD database file
#
# Track frame offsets:
#	150
#	15423
#	33526
#	48952
#	61756
#	84394
#	99019
#	114880
#	131865
#	153667
#	168558
#	186774
#	199388
#	208396
#	229163
#	247198
#
# Disc length: 3519 seconds
#
# Revision: 0
# Processed by: cddbd v1.5.2PL0 Copyright (c) Steve Scherf et al.
# Submitted via: CDex 1.51
#
DISCID=d90dbd10
DTITLE=Rock'n'Roll Band - New Memories
DYEAR=2005
DGENRE=Blues
TTITLE0=Come Around Betty
TTITLE1=I Know What You Want Sister
TTITLE2=Hard Grown Boys
TTITLE3=You Can Do The Jingle
TTITLE4=Rock'n'Roll Water
TTITLE5=88 Dance Halls
TTITLE6=Teenage Nervous Breakdown
TTITLE7=Mona
TTITLE8=Fever
TTITLE9=Rock'n'Roll Fire
TTITLE10=Wooly Bully
TTITLE11=California Rags
TTITLE12=Rockin' Phneunomia
TTITLE13=I'm Gonna Roll
TTITLE14=Hoochie Coochie Man
TTITLE15=Love Me, Come Back Home
EXTD=YEAR: 2005
EXTT0=
EXTT1=
EXTT2=
EXTT3=
EXTT4=
EXTT5=
EXTT6=
EXTT7=
EXTT8=
EXTT9=
EXTT10=
EXTT11=
EXTT12=
EXTT13=
EXTT14=
EXTT15=
PLAYORDER=
